<svg xmlns="http://www.w3.org/2000/svg" width="28" height="28.147" viewBox="0 0 28 28.147">
  <g id="copy-svgrepo-com" transform="translate(-1.203)">
    <g id="Group_105" data-name="Group 105" transform="translate(1.203)">
      <g id="Group_104" data-name="Group 104" transform="translate(0)">
        <path id="Path_197" data-name="Path 197" d="M159.03,0H141.114A2.318,2.318,0,0,0,138.8,2.316V7.75h2.114V2.316a.2.2,0,0,1,.2-.2H159.03a.2.2,0,0,1,.2.2V20.232a.2.2,0,0,1-.2.2h-5.265v2.114h5.265a2.318,2.318,0,0,0,2.316-2.316V2.316A2.318,2.318,0,0,0,159.03,0Z" transform="translate(-133.345 0)" fill="#cfcfcf"/>
        <path id="Path_198" data-name="Path 198" d="M21.435,140H3.519A2.318,2.318,0,0,0,1.2,142.314V160.23a2.318,2.318,0,0,0,2.316,2.316H21.435a2.318,2.318,0,0,0,2.316-2.316V142.314A2.318,2.318,0,0,0,21.435,140Zm0,20.434H3.519a.2.2,0,0,1-.2-.2V142.314a.2.2,0,0,1,.2-.2H21.435a.2.2,0,0,1,.2.2V160.23h0A.2.2,0,0,1,21.435,160.432Z" transform="translate(-1.203 -134.398)" fill="#cfcfcf"/>
      </g>
    </g>
  </g>
</svg>
