<svg xmlns="http://www.w3.org/2000/svg" width="37" height="20" viewBox="0 0 37 20">
  <path id="Subtraction_18" data-name="Subtraction 18" d="M-4071-4116h-17a10.011,10.011,0,0,1-10-10,10.011,10.011,0,0,1,10-10h17a10.011,10.011,0,0,1,10,10A10.011,10.011,0,0,1-4071-4116Zm-19.618-12a1.885,1.885,0,0,0-1.882,1.883,1.885,1.885,0,0,0,1.882,1.883H-4089v1.734a2,2,0,0,0,2,2,2,2,0,0,0,2-2v-1.734h1.617a1.885,1.885,0,0,0,1.883-1.883,1.885,1.885,0,0,0-1.883-1.883H-4085v-1.5a2,2,0,0,0-2-2,2,2,0,0,0-2,2v1.5Zm17.618,3a2,2,0,0,0-2,2,2,2,0,0,0,2,2,2,2,0,0,0,2-2A2,2,0,0,0-4073-4125Zm4-6a2,2,0,0,0-2,2,2,2,0,0,0,2,2,2,2,0,0,0,2-2A2,2,0,0,0-4069-4131Z" transform="translate(4098 4136)" fill="#b6b6b6"/>
</svg>
