<svg xmlns="http://www.w3.org/2000/svg" width="32.544" height="36.612" viewBox="0 0 32.544 36.612">
  <g id="Group_34" data-name="Group 34" transform="translate(-53.728 -466.694)">
    <g id="Path_113" data-name="Path 113" transform="translate(86.272 466.694) rotate(90)" fill="none">
      <path d="M27.459,0l9.153,16.272L27.459,32.544H9.153L0,16.272,9.153,0Z" stroke="none"/>
      <path d="M 10.90753173828125 3.000001907348633 L 3.442043304443359 16.27197265625 L 10.90753173828125 29.54394340515137 L 25.70440673828125 29.54394340515137 L 33.16989517211914 16.27197265625 L 25.70440673828125 3.000001907348633 L 10.90753173828125 3.000001907348633 M 9.152988433837891 3.814697265625e-06 L 27.45895004272461 3.814697265625e-06 L 36.6119384765625 16.27197265625 L 27.45895004272461 32.54394149780273 L 9.152988433837891 32.54394149780273 L 0 16.27197265625 L 9.152988433837891 3.814697265625e-06 Z" stroke="none" fill="#b6b6b6"/>
    </g>
    <path id="Path_114" data-name="Path 114" d="M4168,4633.307l9.969-6.614v-2.635s-3.81-3.757-4.946-3.72-2.883,3.854-3.73,3.72-4.258-6.283-5.822-6.2-5.132,4.146-5.132,4.146v4.688Z" transform="translate(-4098 -4136)" fill="#b2b2b2"/>
    <circle id="Ellipse_42" data-name="Ellipse 42" cx="2.5" cy="2.5" r="2.5" transform="translate(71 478)" fill="#b2b2b2"/>
  </g>
</svg>
