<svg xmlns="http://www.w3.org/2000/svg" width="29.64" height="38.615" viewBox="0 0 29.64 38.615">
  <g id="Component_40_1" data-name="Component 40 – 1" transform="translate(0 1.5)">
    <g id="Path_124" data-name="Path 124" transform="translate(0 6.264)">
      <path id="Path_126" data-name="Path 126" d="M21.633-1.6a8.03,8.03,0,0,1,3.033.031,11.45,11.45,0,0,1,2.792.938c4.327,2.072,8.653,12.312,8.653,12.312s6.534,17.337-14.478,16.241c-10.162.1-16.449-4.735-13.45-14.761,2.2-7.349,5.256-11.242,9.05-13.254A15.747,15.747,0,0,1,21.633-1.6Z" transform="translate(-7.432 1.726)" fill="none"/>
      <path id="Path_127" data-name="Path 127" d="M23.017,1.287a4.239,4.239,0,0,0-.808.074,12.688,12.688,0,0,0-3.565,1.212C15.281,4.356,12.874,8,11.069,14.029c-.978,3.268-.813,5.812.489,7.561,1.6,2.145,5.064,3.326,9.763,3.326l.375,0,.093,0c.591.031,1.155.046,1.7.046,4.714,0,7.874-1.1,9.391-3.277,1.968-2.82.988-7.336.429-8.894-1.583-3.713-4.924-9.636-7.151-10.7a8.515,8.515,0,0,0-2.05-.7,5.91,5.91,0,0,0-1.09-.108m0-3.012a8.89,8.89,0,0,1,1.649.161,11.45,11.45,0,0,1,2.792.938c4.327,2.072,8.653,12.312,8.653,12.312s6.535,17.337-14.478,16.241c-10.162.1-16.449-4.735-13.45-14.761,2.2-7.349,5.256-11.242,9.05-13.254a15.744,15.744,0,0,1,4.4-1.507A7.227,7.227,0,0,1,23.017-1.726Z" transform="translate(-7.432 1.726)" fill="#b6b6b7"/>
    </g>
    <path id="Path_125" data-name="Path 125" d="M139.686-83.176l-11.42,2.331,3.287,5.536,5.486-1.057Z" transform="translate(-118.606 83.176)" fill="none" stroke="#b6b6b7" stroke-linejoin="round" stroke-width="3"/>
    <text id="_" data-name="$" transform="translate(10.32 27.115)" fill="#b6b6b7" font-size="17" font-family="Cairo" font-weight="800"><tspan x="0" y="0">$</tspan></text>
  </g>
</svg>
