<svg xmlns="http://www.w3.org/2000/svg" width="31" height="30" viewBox="0 0 31 30">
  <g id="Group_36" data-name="Group 36" transform="translate(-53 -1458)">
    <g id="Path_115" data-name="Path 115" transform="translate(53 1458)" fill="none">
      <path d="M15.5,0A15.256,15.256,0,0,1,31,15c0,2.668-2.662,7.86-6.852,7.775C12.058,18.9,21.3,30,15.5,30A15.256,15.256,0,0,1,0,15,15.256,15.256,0,0,1,15.5,0Z" stroke="none"/>
      <path d="M 15.5 2 C 11.88167953491211 2 8.483230590820312 3.36039924621582 5.930690765380859 5.830600738525391 C 3.395950317382812 8.283580780029297 2 11.54000091552734 2 15 C 2 18.45999908447266 3.395950317382812 21.7164192199707 5.930690765380859 24.16939926147461 C 8.483230590820312 26.63960075378418 11.88167953491211 28 15.5 28 C 15.54929351806641 28 15.59214210510254 27.99856567382812 15.62902927398682 27.99631118774414 C 15.67286109924316 27.59029006958008 15.6047306060791 26.82654571533203 15.56107997894287 26.33729934692383 C 15.41769981384277 24.73017883300781 15.23925018310547 22.73007011413574 16.56119918823242 21.28493118286133 C 17.36940002441406 20.40140914916992 18.54376029968262 19.95343017578125 20.05167007446289 19.95343017578125 C 21.22509002685547 19.95343017578125 22.6629524230957 20.22071075439453 24.4391975402832 20.76966857910156 C 25.91286277770996 20.6716423034668 27.01716041564941 19.44725036621094 27.55574989318848 18.70526123046875 C 28.50391006469727 17.39902114868164 29 15.85252952575684 29 15 C 29 11.54000091552734 27.60404968261719 8.283580780029297 25.06930923461914 5.830600738525391 C 22.51676940917969 3.36039924621582 19.11832046508789 2 15.5 2 M 15.5 0 C 24.06040954589844 0 31 6.715730667114258 31 15 C 31 17.66754150390625 28.33838844299316 22.86037254333496 24.14843940734863 22.77490043640137 C 12.0576171875 18.89844131469727 21.30395889282227 30 15.5 30 C 6.939590454101562 30 0 23.28426933288574 0 15 C 0 6.715730667114258 6.939590454101562 0 15.5 0 Z" stroke="none" fill="#dbdcdc"/>
    </g>
    <circle id="Ellipse_47" data-name="Ellipse 47" cx="2.5" cy="2.5" r="2.5" transform="translate(58 1470)" fill="#dbdbdc"/>
    <circle id="Ellipse_48" data-name="Ellipse 48" cx="2.5" cy="2.5" r="2.5" transform="translate(62 1464)" fill="#dbdbdc"/>
    <circle id="Ellipse_49" data-name="Ellipse 49" cx="2.5" cy="2.5" r="2.5" transform="translate(69 1464)" fill="#dbdbdc"/>
    <circle id="Ellipse_50" data-name="Ellipse 50" cx="2.5" cy="2.5" r="2.5" transform="translate(74 1470)" fill="#dbdbdc"/>
  </g>
</svg>
