<svg xmlns="http://www.w3.org/2000/svg" width="36" height="30" viewBox="0 0 36 30">
  <g id="Group_32" data-name="Group 32" transform="translate(-53 -301)">
    <path id="Subtraction_16" data-name="Subtraction 16" d="M-4070-4106h-24a4,4,0,0,1-4-4v-22a4,4,0,0,1,4-4h24a4,4,0,0,1,4,4v1.125a4.02,4.02,0,0,0-1-.126h-14a4,4,0,0,0-4,4v12a4,4,0,0,0,4,4h14a4.015,4.015,0,0,0,1-.126V-4110A4,4,0,0,1-4070-4106Z" transform="translate(4151 4437)" fill="#b6b6b7"/>
    <path id="Subtraction_17" data-name="Subtraction 17" d="M-4082-4122h-13a3,3,0,0,1-3-3v-8a3,3,0,0,1,3-3h13a3,3,0,0,1,3,3v8A3,3,0,0,1-4082-4122Zm-9.293-10a3.2,3.2,0,0,0-3.354,3,3.2,3.2,0,0,0,3.354,3,3.2,3.2,0,0,0,3.353-3A3.2,3.2,0,0,0-4091.293-4132Z" transform="translate(4168 4445)" fill="#b6b6b7"/>
  </g>
</svg>
