<svg id="dai" xmlns="http://www.w3.org/2000/svg" width="85.093" height="85.093" viewBox="0 0 85.093 85.093">
  <path id="Path_100" data-name="Path 100" d="M42.546,85.093A42.546,42.546,0,1,0,0,42.546,42.547,42.547,0,0,0,42.546,85.093Z" fill="#f9a606"/>
  <path id="Path_101" data-name="Path 101" d="M82.047,41.274A40.774,40.774,0,1,1,41.274.5,40.774,40.774,0,0,1,82.047,41.274Z" transform="translate(1.273 1.273)" fill="none" stroke="rgba(0,0,0,0.1)" stroke-width="1"/>
  <path id="Path_102" data-name="Path 102" d="M11.223,5H32.008C44.651,5,54.234,11.564,57.8,21.114h6.475v5.773H59.163a25.561,25.561,0,0,1,.151,2.786v.142a25.577,25.577,0,0,1-.191,3.131h5.151v5.773h-6.6c-3.659,9.418-13.168,15.919-25.669,15.919H11.223V38.719H4V32.946h7.223V26.887H4V21.114h7.223Zm5.811,33.719v10.74H32.008c9.241,0,16.106-4.3,19.3-10.74Zm36.056-5.773H17.033V26.887H53.1a21.08,21.08,0,0,1,.2,2.928v.142A20.953,20.953,0,0,1,53.089,32.946ZM32.008,10.17c9.283,0,16.169,4.415,19.346,10.944H17.033V10.17Z" transform="translate(10.182 12.728)" fill="#fff" fill-rule="evenodd"/>
</svg>
