<svg xmlns="http://www.w3.org/2000/svg" width="248.66" height="57.4" viewBox="0 0 248.66 57.4">
  <path id="Union_1" data-name="Union 1" d="M198.46-1689.68V-1733h4.5v2.161a19.18,19.18,0,0,1,8.94-2.76c7.56,0,10.86,4.62,10.86,15.24,0,11.82-3.78,15.96-13.08,15.96a41.237,41.237,0,0,1-6.72-.66v13.38Zm4.5-37.5v20.22a48.854,48.854,0,0,0,6.48.6c6.54,0,8.7-3.361,8.7-12,0-8.22-2.52-11.219-6.9-11.219A19.253,19.253,0,0,0,202.96-1727.18Zm-27.24,37.5,3.9-13.32H175.18l-8.519-30h4.5l7.5,26.1h1.98l7.5-26.1h4.56l-12.48,43.321Zm170.36-22.56c0-6.88,2.24-10.16,8.56-10.16,6.36,0,8.561,3.281,8.561,10.16,0,7.28-1.8,10.64-8.561,10.64C347.92-1701.6,346.08-1704.96,346.08-1712.24Zm3.081,0c0,5.68.76,8.041,5.479,8.041s5.48-2.361,5.48-8.041c0-5.56-1.239-7.56-5.48-7.56S349.16-1717.8,349.16-1712.24Zm-20.24-.12c0-7.24,2.36-10.04,8.32-10.04a46.962,46.962,0,0,1,5.441.6l-.121,2.48c-1.36-.16-3.6-.4-4.72-.4-4.6,0-5.84,2-5.84,7.36,0,5.92.92,8.08,5.88,8.08,1.12,0,3.32-.2,4.72-.36l.12,2.479a48.38,48.38,0,0,1-5.56.56C330.8-1701.6,328.92-1704.52,328.92-1712.36Zm-20.24.48c0-7.6,3.28-10.52,8.36-10.52,5.32,0,8.079,2.8,8.079,9.36l-.2,2.281h-13.2c.04,4.28,1.319,6.48,5.279,6.48,2.16,0,5.44-.2,7.321-.36l.079,2.4a65.459,65.459,0,0,1-7.8.64C310.64-1701.6,308.68-1705.08,308.68-1711.88Zm3.04-1.28h10.36c0-4.96-1.52-6.72-5.04-6.72C313.64-1719.88,311.72-1718,311.72-1713.16ZM300.68-1702v-4.6h3.28v4.6Zm-69.28-11.32v-15.78h-4.2v-3.9h4.2v-9.18h4.5v9.18h9.54v3.9H235.9v14.34c0,6.54.42,8.34,4.32,8.34,1.2,0,3.78-.18,5.34-.3l.3,3.72a57.778,57.778,0,0,1-6.12.66C233.56-1702.34,231.4-1704.68,231.4-1713.32Zm39.66,10.26a6.745,6.745,0,0,1-2.76-1.74,30.294,30.294,0,0,1-10.8,2.4c-5.46,0-8.46-3.12-8.46-9.179,0-5.76,3-8.34,9.18-8.88l9.42-.9v-2.58c0-4.2-1.86-5.7-5.4-5.7-3.06,0-8.28.48-11.34.78l-.18-3.421a72.489,72.489,0,0,1,11.759-1.319c6.781,0,9.661,3.12,9.661,9.66v15.3c.12,1.8,1.56,2.46,3.479,2.64l-.18,3.6A12.007,12.007,0,0,1,271.06-1703.06Zm-12.3-14.04c-3.66.36-5.1,2.1-5.1,5.4,0,3.48,1.5,5.52,4.56,5.52a29.805,29.805,0,0,0,9.42-1.859v-9.9Zm-143.22-6.54c0-14.04,2.7-21.479,15.179-21.479a61.049,61.049,0,0,1,11.461,1.319l-.18,3.9a73.838,73.838,0,0,0-10.8-1.08c-9.24,0-10.86,5.52-10.86,17.339,0,11.58,1.56,17.1,10.98,17.1a73,73,0,0,0,10.68-1.08l.18,3.96a62.477,62.477,0,0,1-11.461,1.26C118.3-1702.4,115.54-1709.96,115.54-1723.641ZM281.38-1703v-43.08h4.5V-1703Zm-132.66,0v-30h4.5v4.081a32.6,32.6,0,0,1,10.921-4.74v4.56a44.017,44.017,0,0,0-10.921,4.08V-1703Z" transform="translate(-115.04 1746.58)" fill="#f3f3f3" stroke="rgba(0,0,0,0)" stroke-miterlimit="10" stroke-width="1"/>
</svg>
