<svg id="usdc" xmlns="http://www.w3.org/2000/svg" width="85.093" height="85.093" viewBox="0 0 85.093 85.093">
  <path id="Path_103" data-name="Path 103" d="M42.546,85.093A42.546,42.546,0,1,0,0,42.546,42.546,42.546,0,0,0,42.546,85.093Z" fill="#2775c9"/>
  <path id="Path_104" data-name="Path 104" d="M82.047,41.274A40.774,40.774,0,1,1,41.274.5,40.774,40.774,0,0,1,82.047,41.274Z" transform="translate(1.273 1.273)" fill="none" stroke="rgba(0,0,0,0.1)" stroke-width="1"/>
  <path id="Path_105" data-name="Path 105" d="M32.357,17.938V15.281a2.553,2.553,0,1,1,5.106,0v2.648c4.619.7,7.786,3.322,8.632,7.064a1.508,1.508,0,0,1-1.47,1.839H43.244a2.885,2.885,0,0,1-2.61-1.657c-.881-1.872-2.968-2.95-5.748-2.95-3.477,0-5.823,1.706-5.823,4.266,0,2.048,1.557,3.242,5.332,4.138l3.541.811c6.249,1.429,8.894,4.01,8.894,8.6,0,5.081-3.547,8.518-9.367,9.328v3.076a2.553,2.553,0,1,1-5.106,0V49.411c-5.154-.622-8.636-3.351-9.453-7.525a1.267,1.267,0,0,1,1-1.487,1.249,1.249,0,0,1,.244-.024h2.1a2.459,2.459,0,0,1,2.22,1.4c.965,2.03,3.435,3.289,6.528,3.289,3.711,0,6.292-1.834,6.292-4.394,0-2.218-1.578-3.5-5.46-4.415l-3.988-.939c-5.674-1.3-8.361-4.031-8.361-8.425C23.474,22.164,27.046,18.762,32.357,17.938ZM3,33.737a31.812,31.812,0,0,1,21.923-30.2,1.532,1.532,0,0,1,2.01,1.456v.9a3.365,3.365,0,0,1-2.1,3.119,26.65,26.65,0,0,0-.014,49.442A3.391,3.391,0,0,1,26.932,61.6v.75a1.629,1.629,0,0,1-2.142,1.545A31.812,31.812,0,0,1,3,33.737Zm63.82,0a31.811,31.811,0,0,1-21.7,30.125,1.693,1.693,0,0,1-2.232-1.6v-.6a3.479,3.479,0,0,1,2.165-3.221A26.65,26.65,0,0,0,45.08,9.049a3.529,3.529,0,0,1-2.193-3.266V5.235a1.706,1.706,0,0,1,2.251-1.617A31.811,31.811,0,0,1,66.82,33.737Z" transform="translate(7.637 8.811)" fill="#fff" fill-rule="evenodd"/>
</svg>
