<svg id="usdt" xmlns="http://www.w3.org/2000/svg" width="85.093" height="85.093" viewBox="0 0 85.093 85.093">
  <path id="Path_106" data-name="Path 106" d="M0,42.546A42.546,42.546,0,1,1,42.546,85.093,42.546,42.546,0,0,1,0,42.546Z" fill="#50af95" fill-rule="evenodd"/>
  <path id="Path_107" data-name="Path 107" d="M82.047,41.274A40.774,40.774,0,1,1,41.274.5,40.774,40.774,0,0,1,82.047,41.274Z" transform="translate(1.273 1.273)" fill="none" stroke="rgba(0,0,0,0.1)" stroke-width="1"/>
  <path id="Path_108" data-name="Path 108" d="M34.869,30.63c-.282.021-1.739.108-4.99.108-2.585,0-4.421-.078-5.065-.108-9.991-.44-17.449-2.183-17.449-4.27s7.458-3.827,17.449-4.275v6.809c.653.047,2.524.158,5.11.158,3.1,0,4.656-.129,4.936-.155V22.09c9.97.445,17.412,2.188,17.412,4.27s-7.439,3.825-17.412,4.268Zm0-9.245V15.292H48.783V6H10.9v9.292H24.811v6.091C13.5,21.9,5,24.148,5,26.838s8.5,4.932,19.811,5.455V51.819H34.866V32.286c11.282-.52,19.771-2.763,19.771-5.45s-8.482-4.93-19.771-5.453Z" transform="translate(12.728 15.273)" fill="#fff" fill-rule="evenodd"/>
</svg>
